####
#
#	OBJ File Generated by LightWave3D
#	LightWave3D OBJ Export v2.3
#
####
o ak47.obj
mtllib ak47.mtl
g default
v -0.0595314 0.10075 1.02836
v -0.0453854 0.152734 0.5704
v -0.0427451 0.138773 0.484921
v -0.0415584 -0.0654069 0.196464
v -0.0415584 -0.0513555 0.049675
v -0.0415584 -0.033175 -0.239613
v -0.0415584 -0.033175 -0.188329
v -0.0415584 -0.0280466 0.011678
v -0.0415584 -0.00891979 0.196431
v -0.0415584 0.034191 -0.74196
v -0.0415584 0.0410789 -0.260126
v -0.0415584 0.0446825 0.011678
v -0.0415584 0.0446825 -0.188329
v -0.0415584 0.0468121 0.218723
v -0.0415584 0.0514397 -0.473467
v -0.0415584 0.0514397 -0.682705
v -0.0415584 0.0796495 -1.20888
v -0.0415584 0.0796495 -1.25152
v -0.0415584 0.177089 0.262969
v -0.0415584 0.239055 -1.25152
v -0.0415584 0.258446 -0.810033
v -0.0415584 0.258446 -0.838464
v -0.0415584 0.264271 -0.58904
v -0.0415584 0.265176 -1.23361
v -0.0415584 0.273569 -0.848724
v -0.0359046 0.171637 0.263466
v -0.0349817 0.0669579 -1.50877
v -0.0349817 0.0669579 -1.53126
v -0.0349817 0.253617 -1.50877
v -0.0349817 0.253617 -1.53126
v -0.0333215 -0.19225 0.984517
v -0.0304385 0.0514433 -0.829377
v -0.0297301 -0.294416 0.229826
v -0.0297301 -0.294416 0.175822
v -0.0297301 -0.251354 0.282815
v -0.0292808 -0.0679765 -0.166171
v -0.0292808 -0.0657276 -0.0424807
v -0.0292808 -0.056732 -0.00200037
v -0.0292808 -0.0454874 -0.18866
v -0.0292808 -0.0252473 0.0227376
v -0.0292808 -0.000509295 -0.211149
v -0.0292084 0.21415 -1.20475
v -0.0292084 0.21415 -1.55197
v -0.0274903 0.297606 -0.594168
v -0.0274903 0.297606 -0.798607
v -0.0265861 0.0669579 -1.92931
v -0.0265861 0.0669579 -1.9518
v -0.0265861 0.159163 -1.92931
v -0.0265861 0.159163 -1.9518
v -0.0238489 0.0478863 0.237525
v -0.0228954 -0.512476 -0.628636
v -0.0228954 -0.374625 -0.751717
v -0.0228954 -0.330316 -0.416936
v -0.0228954 -0.231851 -0.57448
v -0.0228954 -0.143233 -0.318471
v -0.0228954 -0.0770047 -0.490116
v -0.0228954 0.0412856 -0.264315
v -0.0228954 0.0512321 -0.469122
v -0.0220963 0.119726 -1.17731
v -0.0220963 0.119726 -2.01738
v -0.0213778 0.0514433 -1.20888
v -0.020445 0.0531505 0.238564
v -0.0182972 0.264271 0.155273
v -0.0128835 -0.0356244 -0.0724802
v -0.0128835 -0.00362559 -0.0394681
v -0.0128835 0.0503482 -0.0327213
v -0.00817562 0.0933035 -1.22747
v -0.00817562 0.0933035 -1.96722
v -1.13941e-010 0.184941 -1.20475
v -1.13941e-010 0.184941 -1.56986
v -1.13941e-010 0.243358 -1.20475
v -1.13941e-010 0.243358 -1.53407
v -8.61972e-011 0.0976298 -1.17731
v -8.61972e-011 0.0976298 -2.01738
v -8.61972e-011 0.141822 -1.17731
v -8.61972e-011 0.141822 -2.01738
v -3.1893e-011 0.0851279 -1.22747
v -3.1893e-011 0.0851279 -1.96722
v -3.1893e-011 0.101479 -1.22747
v -3.1893e-011 0.101479 -1.96722
v 0 0.118683 -1.84498
v 0 0.123181 -1.99341
v 0 0.131403 -1.68949
v 0 0.132176 -1.4964
v 0 0.154665 -1.60287
v 0 0.155217 -1.93645
v 0 0.159163 -1.95742
v 0 0.159838 -1.89023
v 0 0.16677 -1.87791
v 0 0.176783 -1.94877
v 0 0.183715 -1.87714
v 0 0.185377 -1.55956
v 0 0.196809 -1.93645
v 0 0.200661 -1.88561
v 0 0.235626 -1.4919
v 0 0.235626 -1.52788
v 0 0.291848 -1.9057
v 0 0.291848 -1.95068
v 0.00817562 0.0933035 -1.22747
v 0.00817562 0.0933035 -1.96722
v 0.0128835 -0.0356244 -0.0724802
v 0.0128835 -0.00362559 -0.0394681
v 0.0128835 0.0503482 -0.0327213
v 0.01755 0.264271 0.155273
v 0.0196978 0.0531505 0.238564
v 0.0206306 0.0514433 -1.20888
v 0.0220963 0.119726 -1.17731
v 0.0220963 0.119726 -2.01738
v 0.0221482 -0.512476 -0.628636
v 0.0221482 -0.374625 -0.751717
v 0.0221482 -0.330316 -0.416936
v 0.0221482 -0.231851 -0.57448
v 0.0221482 -0.143233 -0.318471
v 0.0221482 -0.0770047 -0.490116
v 0.0221482 0.0412856 -0.264315
v 0.0221482 0.0512321 -0.469122
v 0.0231017 0.0478863 0.237525
v 0.0265861 0.0669579 -1.92931
v 0.0265861 0.0669579 -1.9518
v 0.0265861 0.159163 -1.92931
v 0.0265861 0.159163 -1.9518
v 0.0267431 0.297606 -0.594168
v 0.0267431 0.297606 -0.798607
v 0.0289829 -0.294416 0.229826
v 0.0289829 -0.294416 0.175822
v 0.0289829 -0.251354 0.282815
v 0.0292084 0.21415 -1.20475
v 0.0292084 0.21415 -1.55197
v 0.0292808 -0.0679765 -0.166171
v 0.0292808 -0.0657276 -0.0424807
v 0.0292808 -0.056732 -0.00200037
v 0.0292808 -0.0454874 -0.18866
v 0.0292808 -0.0252473 0.0227376
v 0.0292808 -0.000509295 -0.211149
v 0.0296913 0.0514433 -0.829377
v 0.0325744 -0.19225 0.984517
v 0.0349817 0.0669579 -1.50877
v 0.0349817 0.0669579 -1.53126
v 0.0349817 0.253617 -1.50877
v 0.0349817 0.253617 -1.53126
v 0.0351575 0.171637 0.263466
v 0.0408112 -0.0654069 0.196464
v 0.0408112 -0.0513555 0.049675
v 0.0408112 -0.033175 -0.239613
v 0.0408112 -0.033175 -0.188329
v 0.0408112 -0.0280466 0.011678
v 0.0408112 -0.00891979 0.196431
v 0.0408112 0.034191 -0.74196
v 0.0408112 0.0410789 -0.260126
v 0.0408112 0.0446825 0.011678
v 0.0408112 0.0446825 -0.188329
v 0.0408112 0.0468121 0.218723
v 0.0408112 0.0514397 -0.473467
v 0.0408112 0.0514397 -0.682705
v 0.0408112 0.0796495 -1.20888
v 0.0408112 0.0796495 -1.25152
v 0.0408112 0.177089 0.262969
v 0.0408112 0.239055 -1.25152
v 0.0408112 0.258446 -0.810033
v 0.0408112 0.258446 -0.838464
v 0.0408112 0.264271 -0.58904
v 0.0408112 0.265176 -1.23361
v 0.0408112 0.273569 -0.848724
v 0.0419979 0.138773 0.484921
v 0.0446383 0.152734 0.5704
v 0.0587842 0.10075 1.02836
vt 0.0149917 0.732808
vt 0.0280606 0.415129
vt 0.153823 0.790765
vt 0.177233 0.770821
vt 0.245493 0.380104
vt 0.250413 0.816289
vt 0.257655 0.669441
vt 0.25992 0.338252
vt 0.266614 0.671823
vt 0.273921 0.568034
vt 0.273931 0.624712
vt 0.276003 0.338252
vt 0.286189 0.899503
vt 0.313574 0.582133
vt 0.321597 0.608329
vt 0.32489 0.60552
vt 0.32489 0.678495
vt 0.328964 0.576738
vt 0.338114 0.68418
vt 0.340123 0.630024
vt 0.341021 0.567712
vt 0.349955 0.597917
vt 0.377859 0.570876
vt 0.384459 0.600375
vt 0.384459 0.678495
vt 0.384557 0.588021
vt 0.391255 0.633151
vt 0.399732 0.600375
vt 0.407875 0.643848
vt 0.422643 0.482023
vt 0.453191 0.286487
vt 0.468704 0.681887
vt 0.475894 0.551244
vt 0.502067 0.389401
vt 0.505158 0.893404
vt 0.506685 0.928207
vt 0.518869 0.096096
vt 0.531699 0.681887
vt 0.549347 0.667968
vt 0.55231 0.258471
vt 0.567573 0.928207
vt 0.568266 0.89298
vt 0.575382 0.685279
vt 0.580799 0.89298
vt 0.583855 0.908154
vt 0.677567 0.685279
vt 0.679008 0.721866
vt 0.679008 0.753792
vt 0.679008 0.785718
vt 0.687179 0.819227
vt 0.687179 0.84407
vt 0.687179 0.867238
vt 0.688409 0.71358
vt 0.693945 0.717044
vt 0.693945 0.725247
vt 0.693945 0.73345
vt 0.695697 0.889767
vt 0.701108 0.71358
vt 0.701108 0.873523
vt 0.772702 0.870083
vt 0.774041 0.766284
vt 0.778663 0.704362
vt 0.778663 0.807372
vt 0.783418 0.870083
vt 0.783485 0.704362
vt 0.783485 0.807372
vt 0.785158 0.826005
vt 0.785158 0.840004
vt 0.785716 0.859504
vt 0.793465 0.811414
vt 0.808201 0.788849
vt 0.837671 0.757258
vt 0.877859 0.752745
vt 0.887437 0.817997
vt 0.887666 0.800995
vt 0.88996 0.835
vt 0.891336 0.794039
vt 0.895943 0.926495
vt 0.902976 0.698513
vt 0.902976 0.778077
vt 0.9051 0.789402
vt 0.9051 0.831135
vt 0.908771 0.811042
vt 0.909339 0.926495
vt 0.909674 0.698513
vt 0.909674 0.778077
vt 0.911349 0.793362
vt 0.914267 0.703492
vt 0.914267 0.711695
vt 0.914267 0.719898
vt 0.922065 0.757258
vt 0.929204 0.736917
vt 0.929204 0.752437
vt 0.929204 0.767956
vn -0.980196 -0.140028 -0.140028
vn -0.96225 -0.19245 0.19245
vn -0.956777 0.25478 0.140229
vn -0.930998 0.0508692 0.361461
vn -0.929543 -0.314799 -0.191969
vn -0.914484 -0.399096 -0.0666459
vn -0.913846 -0.404937 0.0301784
vn -0.912783 0.358074 -0.196497
vn -0.89787 0.282196 -0.337926
vn -0.890561 0.453531 -0.0348073
vn -0.877394 0.426859 0.219024
vn -0.836317 -0.380465 -0.39474
vn -0.835665 0.17827 -0.519503
vn -0.833316 -0.207597 0.512335
vn -0.817502 -0.522651 0.241921
vn -0.816497 0 0.57735
vn -0.816497 0 -0.57735
vn -0.816497 -3.44128e-008 0.57735
vn -0.816497 0.301643 -0.492286
vn -0.816496 0 0.57735
vn -0.816496 0 -0.57735
vn -0.814016 -0.57959 -0.0381349
vn -0.782506 -0.495439 -0.377126
vn -0.781804 0.623297 -0.0168279
vn -0.77414 0.563361 0.288674
vn -0.767476 -0.490165 0.413181
vn -0.760842 -0.45019 0.467384
vn -0.747104 0.584641 -0.316276
vn -0.74282 -0.581422 -0.331915
vn -0.732242 0.14624 0.665158
vn -0.723114 0.204396 -0.659794
vn -0.713535 -0.132289 0.688017
vn -0.713356 -0.436488 0.548271
vn -0.708455 -0.664759 0.237036
vn -0.707177 -0.706673 -0.0226891
vn -0.660602 0.665805 0.346856
vn -0.63441 -0.723046 0.273365
vn -0.624587 -0.707063 -0.331593
vn -0.60599 0.464082 0.646068
vn -0.587365 0.0662184 -0.806609
vn -0.57735 -0.57735 0.57735
vn -0.57735 -0.57735 0.57735
vn -0.57735 -0.57735 0.57735
vn -0.57735 -0.57735 -0.57735
vn -0.57735 -0.57735 -0.57735
vn -0.57735 0.57735 0.57735
vn -0.57735 0.57735 0.57735
vn -0.57735 0.57735 -0.57735
vn -0.57735 0.57735 -0.57735
vn -0.523347 -0.210218 0.825782
vn -0.497163 -0.42378 -0.757126
vn -0.495928 -0.868339 0.0065303
vn -0.447349 0.769192 -0.456313
vn -0.424625 -0.779805 -0.459998
vn -0.404265 0.313729 0.859153
vn -0.402895 0.872078 0.27777
vn -0.396654 -0.771605 -0.497283
vn -0.21316 -0.504914 0.836435
vn 0 -0.992996 0.118148
vn 0 -0.92732 -0.37427
vn 0 -0.846325 0.532666
vn 0 -0.816497 0.57735
vn 0 -0.816497 -0.57735
vn 0 -0.816497 0.57735
vn 0 -0.816496 0.57735
vn 0 -0.816496 -0.57735
vn 0 -0.72277 -0.691088
vn 0 -0.617821 0.786319
vn 0 -0.58471 -0.811242
vn 0 -0.447214 -0.894427
vn 0 0.124036 -0.992278
vn 0 0.446339 -0.894864
vn 0 0.718041 -0.696001
vn 0 0.816496 0.57735
vn 0 0.816496 -0.57735
vn 0 0.816497 0.57735
vn 0 0.816497 0.57735
vn 0 0.816497 -0.57735
vn 0 0.915223 -0.402947
vn 0.21316 -0.504914 0.836435
vn 0.396654 -0.771606 -0.497283
vn 0.402895 0.872078 0.27777
vn 0.404265 0.313729 0.859153
vn 0.424625 -0.779805 -0.459998
vn 0.44735 0.769192 -0.456313
vn 0.495928 -0.868339 0.00653031
vn 0.497163 -0.42378 -0.757126
vn 0.523347 -0.210218 0.825782
vn 0.57735 -0.57735 0.57735
vn 0.57735 -0.57735 0.57735
vn 0.57735 -0.57735 0.57735
vn 0.57735 -0.57735 -0.57735
vn 0.57735 -0.57735 -0.57735
vn 0.57735 0.57735 0.57735
vn 0.57735 0.57735 0.57735
vn 0.57735 0.57735 -0.57735
vn 0.57735 0.57735 -0.57735
vn 0.587365 0.0662184 -0.806609
vn 0.60599 0.464082 0.646068
vn 0.624587 -0.707063 -0.331593
vn 0.63441 -0.723046 0.273365
vn 0.660602 0.665805 0.346856
vn 0.707177 -0.706673 -0.0226891
vn 0.708455 -0.664759 0.237036
vn 0.713356 -0.436488 0.548271
vn 0.713535 -0.132289 0.688017
vn 0.723114 0.204396 -0.659794
vn 0.732242 0.14624 0.665158
vn 0.74282 -0.581422 -0.331915
vn 0.747104 0.584641 -0.316276
vn 0.760842 -0.45019 0.467384
vn 0.767476 -0.490165 0.413181
vn 0.77414 0.563361 0.288674
vn 0.781804 0.623297 -0.016828
vn 0.782506 -0.495439 -0.377126
vn 0.814016 -0.57959 -0.0381349
vn 0.816496 0 0.57735
vn 0.816496 0 -0.57735
vn 0.816497 -3.44128e-008 0.57735
vn 0.816497 0.301643 -0.492286
vn 0.816497 0 0.57735
vn 0.816497 0 -0.57735
vn 0.817502 -0.522651 0.241921
vn 0.833316 -0.207597 0.512335
vn 0.835665 0.17827 -0.519503
vn 0.836317 -0.380465 -0.39474
vn 0.877394 0.426859 0.219024
vn 0.890561 0.453531 -0.0348073
vn 0.89787 0.282196 -0.337926
vn 0.912783 0.358074 -0.196497
vn 0.913846 -0.404937 0.0301784
vn 0.914484 -0.399096 -0.0666459
vn 0.929543 -0.314798 -0.191969
vn 0.930998 0.0508692 0.361461
vn 0.956777 0.25478 0.140229
vn 0.96225 -0.19245 0.19245
vn 0.980196 -0.140028 -0.140028
vn 1 0 -0
usemtl Default
s 1
f 83/72/138 85/71/138 92/70/138 96/64/138 95/60/138 84/61/138
f 82/91/138 87/87/138 90/83/138 86/81/138 88/77/138 89/75/138 91/74/138 94/76/138 93/82/138 90/83/138 87/87/138 98/84/138 97/78/138 81/73/138
f 166/1/99 1/1/39 31/2/15 136/2/123
f 165/3/128 2/3/10 1/1/39 166/1/99
f 3/4/24 2/3/10 165/3/128 164/4/114
f 141/6/83 26/6/55 3/4/24 164/4/114
f 104/13/82 63/13/56 19/6/30 157/6/108
f 23/35/3 63/13/56 104/13/82 161/35/135
f 122/36/102 44/36/36 23/35/3 161/35/135
f 45/41/53 44/36/36 122/36/102 123/41/85
f 21/42/8 45/41/53 123/41/85 159/42/130
f 22/44/25 21/42/8 159/42/130 160/44/113
f 163/45/127 25/45/11 22/44/25 160/44/113
f 24/57/28 25/45/11 163/45/127 162/57/110
f 17/53/5 18/58/45 156/58/93 155/53/133
f 61/46/57 17/53/5 155/53/133 106/46/81
f 135/43/132 32/43/6 61/46/57 106/46/81
f 10/39/52 32/43/6 135/43/132 148/39/86
f 154/38/131 16/38/7 10/39/52 148/39/86
f 15/32/35 16/38/7 154/38/131 153/32/103
f 56/33/13 58/32/54 116/32/84 114/33/125
f 54/34/9 56/33/13 114/33/125 112/34/129
f 52/40/40 54/34/9 112/34/129 110/40/98
f 51/37/22 52/40/40 110/40/98 109/37/116
f 111/31/105 53/31/33 51/37/22 109/37/116
f 113/30/124 55/30/14 53/31/33 111/31/105
f 115/29/101 57/29/37 55/30/14 113/30/124
f 6/28/23 11/29/38 149/29/100 144/28/115
f 7/24/41 6/28/23 144/28/115 145/24/89
f 151/25/136 13/25/2 7/24/41 145/24/89
f 12/17/1 13/25/2 151/25/136 150/17/137
f 8/16/51 12/17/1 150/17/137 146/16/87
f 5/14/12 8/16/51 146/16/87 143/14/126
f 34/12/29 5/14/12 143/14/126 125/12/109
f 33/8/34 34/12/29 125/12/109 124/8/104
f 126/5/88 35/5/50 33/8/34 124/8/104
f 142/10/134 4/10/4 35/5/50 126/5/88
f 147/11/106 9/11/32 4/10/4 142/10/134
f 152/9/111 14/9/27 9/11/32 147/11/106
f 50/7/58 14/9/27 152/9/111 117/7/80
f 31/2/15 62/7/26 105/7/112 136/2/123
f 162/57/110 158/59/107 20/59/31 24/57/28
f 18/58/45 20/59/31 158/59/107 156/58/93
f 67/55/20 77/54/62 99/55/117 79/56/77
f 100/89/118 80/90/78 79/56/77 99/55/117
f 78/88/63 100/89/118 99/55/117 77/54/62
f 67/55/20 68/89/21 78/88/63 77/54/62
f 79/56/77 80/90/78 68/89/21 67/55/20
f 100/89/118 78/88/63 68/89/21 80/90/78
f 42/51/18 69/50/64 127/51/119 71/52/76
f 128/68/120 72/69/79 71/52/76 127/51/119
f 70/67/67 128/68/120 127/51/119 69/50/64
f 42/51/18 43/68/19 70/67/67 69/50/64
f 71/52/76 72/69/79 43/68/19 42/51/18
f 128/68/120 70/67/67 43/68/19 72/69/79
f 59/48/16 73/47/65 107/48/121 75/49/74
f 108/93/122 76/94/75 75/49/74 107/48/121
f 74/92/66 108/93/122 107/48/121 73/47/65
f 59/48/16 60/93/17 74/92/66 73/47/65
f 75/49/74 76/94/75 60/93/17 59/48/16
f 108/93/122 74/92/66 60/93/17 76/94/75
f 48/80/47 49/86/48 47/85/44 46/79/43
f 47/85/44 119/85/92 118/79/91 46/79/43
f 49/86/48 121/86/96 119/85/92 47/85/44
f 120/80/95 121/86/96 49/86/48 48/80/47
f 118/79/91 120/80/95 48/80/47 46/79/43
f 119/85/92 121/86/96 120/80/95 118/79/91
f 29/63/46 30/66/49 28/65/45 27/62/42
f 28/65/45 138/65/93 137/62/90 27/62/42
f 30/66/49 140/66/97 138/65/93 28/65/45
f 139/63/94 140/66/97 30/66/49 29/63/46
f 137/62/90 139/63/94 29/63/46 27/62/42
f 138/65/93 140/66/97 139/63/94 137/62/90
f 38/18/61 131/18/61 133/15/68 40/15/68
f 37/21/59 130/21/59 131/18/61 38/18/61
f 36/23/60 129/23/60 130/21/59 37/21/59
f 39/26/69 132/26/69 129/23/60 36/23/60
f 41/27/70 134/27/70 132/26/69 39/26/69
f 65/20/72 102/20/72 101/22/73 64/22/73
f 66/19/71 103/19/71 102/20/72 65/20/72
f 110/40/98 112/34/129 109/37/116
f 112/34/129 111/31/105 109/37/116
f 112/34/129 113/30/124 111/31/105
f 165/3/128 166/1/99 136/2/123
f 114/33/125 113/30/124 112/34/129
f 114/33/125 115/29/101 113/30/124
f 151/25/136 145/24/89 144/28/115
f 105/7/112 165/3/128 136/2/123
f 146/16/87 150/17/137 143/14/126
f 116/32/84 115/29/101 114/33/125
f 142/10/134 126/5/88 124/8/104
f 156/58/93 158/59/107 155/53/133
f 125/12/109 142/10/134 124/8/104
f 143/14/126 142/10/134 125/12/109
f 143/14/126 150/17/137 142/10/134
f 150/17/137 147/11/106 142/10/134
f 150/17/137 152/9/111 147/11/106
f 149/29/100 151/25/136 144/28/115
f 153/32/103 151/25/136 149/29/100
f 123/41/85 122/36/102 159/42/130
f 135/43/132 154/38/131 148/39/86
f 122/36/102 161/35/135 159/42/130
f 158/59/107 162/57/110 155/53/133
f 162/57/110 163/45/127 155/53/133
f 161/35/135 104/13/82 157/6/108
f 106/46/81 155/53/133 135/43/132
f 155/53/133 163/45/127 135/43/132
f 164/4/114 165/3/128 105/7/112
f 141/6/83 164/4/114 105/7/112
f 152/9/111 157/6/108 117/7/80
f 157/6/108 152/9/111 150/17/137
f 161/35/135 157/6/108 150/17/137
f 151/25/136 161/35/135 150/17/137
f 153/32/103 161/35/135 151/25/136
f 154/38/131 161/35/135 153/32/103
f 159/42/130 161/35/135 154/38/131
f 135/43/132 159/42/130 154/38/131
f 160/44/113 159/42/130 135/43/132
f 163/45/127 160/44/113 135/43/132
f 54/34/9 52/40/40 51/37/22
f 53/31/33 54/34/9 51/37/22
f 55/30/14 54/34/9 53/31/33
f 1/1/39 2/3/10 31/2/15
f 55/30/14 56/33/13 54/34/9
f 57/29/37 56/33/13 55/30/14
f 7/24/41 13/25/2 6/28/23
f 2/3/10 62/7/26 31/2/15
f 12/17/1 8/16/51 5/14/12
f 57/29/37 58/32/54 56/33/13
f 35/5/50 4/10/4 33/8/34
f 20/59/31 18/58/45 17/53/5
f 4/10/4 34/12/29 33/8/34
f 4/10/4 5/14/12 34/12/29
f 12/17/1 5/14/12 4/10/4
f 9/11/32 12/17/1 4/10/4
f 14/9/27 12/17/1 9/11/32
f 13/25/2 11/29/38 6/28/23
f 13/25/2 15/32/35 11/29/38
f 44/36/36 45/41/53 21/42/8
f 16/38/7 32/43/6 10/39/52
f 23/35/3 44/36/36 21/42/8
f 24/57/28 20/59/31 17/53/5
f 25/45/11 24/57/28 17/53/5
f 63/13/56 23/35/3 19/6/30
f 17/53/5 61/46/57 32/43/6
f 25/45/11 17/53/5 32/43/6
f 2/3/10 3/4/24 62/7/26
f 3/4/24 26/6/55 62/7/26
f 19/6/30 14/9/27 50/7/58
f 14/9/27 19/6/30 12/17/1
f 19/6/30 23/35/3 12/17/1
f 23/35/3 13/25/2 12/17/1
f 23/35/3 15/32/35 13/25/2
f 23/35/3 16/38/7 15/32/35
f 23/35/3 21/42/8 16/38/7
f 21/42/8 32/43/6 16/38/7
f 22/44/25 25/45/11 32/43/6
f 21/42/8 22/44/25 32/43/6
f 58/32/54 15/32/35 153/32/103 116/32/84
f 149/29/100 11/29/38 57/29/37 115/29/101
f 116/32/84 153/32/103 149/29/100 115/29/101
f 11/29/38 15/32/35 58/32/54 57/29/37
f 157/6/108 19/6/30 26/6/55 141/6/83
f 62/7/26 50/7/58 117/7/80 105/7/112
f 117/7/80 157/6/108 141/6/83 105/7/112
f 26/6/55 19/6/30 50/7/58 62/7/26
